# xmcd
#
# Track frame offsets: 
#        150
#        17028
#        30785
#        45851
#        61077
#        75439
#        87368
#        101816
#        120326
#        137186
#        153891
#        166453
#        177479
#        190201
#        204810
#        218275
#        231043
#        242713
#        261697
#        276381
#        292606
#        302782
#        319969
#
# Disc length: 4414 seconds
#
# Revision: 0
# Processed by: cddbd v1.5.2PL0 Copyright (c) Steve Scherf et al.
# Submitted via: ExactAudioCopy v0.95b4
#
DISCID=2c113c17
DTITLE=Johnny Lee - Greatest Hits and More [Disc 1]
DYEAR=2006
DGENRE=Country
TTITLE0=Lookin' For Love
TTITLE1=Pickin' Up Strangers
TTITLE2=Rollin' Lonely
TTITLE3=Dreams Die Hard
TTITLE4=You Could've Heard A Heart Break
TTITLE5=Hey Bartender
TTITLE6=Highways Run Forever
TTITLE7=Cherokee Fiddle
TTITLE8=Prisoner Of Hope
TTITLE9=You Can't Fly Like An Eagle
TTITLE10=Sounds Like Love
TTITLE11=Be There For Me Baby
TTITLE12=When You Fall In Love
TTITLE13=Together (The New Wedding Song)
TTITLE14=One In A Million
TTITLE15=The Anniversary Song
TTITLE16=Three Never Was A Doubt
TTITLE17=Lady In Red
TTITLE18=Bet Your Heart On Me
TTITLE19=The Eyes Of Love
TTITLE20=Red Sails In The Sunset
TTITLE21=What A Wonderful World
TTITLE22=The Yellow Rose
EXTD=
EXTT0=
EXTT1=
EXTT2=
EXTT3=
EXTT4=
EXTT5=
EXTT6=
EXTT7=
EXTT8=
EXTT9=
EXTT10=
EXTT11=
EXTT12=
EXTT13=
EXTT14=
EXTT15=
EXTT16=
EXTT17=
EXTT18=
EXTT19=
EXTT20=
EXTT21=
EXTT22=
PLAYORDER=
